<svg width="100%" height="100%" id="svg" viewBox="0 0 1440 390" xmlns="http://www.w3.org/2000/svg" class="transition duration-300 ease-in-out delay-150"><path d="M 0,400 L 0,360 C 81.90905743740794,378.75138070692196 163.81811487481588,397.50276141384387 212,377 C 260.1818851251841,356.49723858615613 274.63659793814435,296.74033505154637 333,266 C 391.36340206185565,235.2596649484536 493.6354933726068,233.53589837997055 568,223 C 642.3645066273932,212.46410162002945 688.8214285714286,193.11607142857144 743,163 C 797.1785714285714,132.88392857142856 859.0787923416791,91.99981590574373 913,58 C 966.9212076583209,24.000184094256266 1012.8634020618556,-3.1153350515463885 1072,-31 C 1131.1365979381444,-58.88466494845361 1203.4675994108984,-87.53847569955818 1267,-110 C 1330.5324005891016,-132.46152430044182 1385.2662002945508,-148.73076215022093 1440,-165 L 1440,400 L 0,400 Z" stroke="none" stroke-width="0" fill="#ef0e90" fill-opacity="0.265" class="transition-all duration-300 ease-in-out delay-150 path-0"></path><path d="M 0,400 L 0,440 C 70.30504418262149,434.22413475699557 140.61008836524297,428.4482695139912 193,415 C 245.38991163475703,401.5517304860088 279.86469072164954,380.4310567010309 336,359 C 392.13530927835046,337.5689432989691 469.931148748159,315.82750368188516 536,291 C 602.068851251841,266.17249631811484 656.4107142857143,238.25892857142858 707,211 C 757.5892857142857,183.74107142857142 804.4259941089839,157.1367820324006 870,126 C 935.5740058910161,94.86321796759941 1019.8853092783504,59.193943298969074 1091,39 C 1162.1146907216496,18.806056701030926 1220.0327687776144,14.08744477172312 1276,-4 C 1331.9672312223856,-22.08744477172312 1385.9836156111928,-53.54372238586156 1440,-85 L 1440,400 L 0,400 Z" stroke="none" stroke-width="0" fill="#ef0e90" fill-opacity="0.4" class="transition-all duration-300 ease-in-out delay-150 path-1"></path><path d="M 0,400 L 0,520 C 52.133284241531655,524.2326030927835 104.26656848306331,528.465206185567 164,515 C 223.7334315169367,501.53479381443304 291.0670103092784,470.3717783505155 364,449 C 436.9329896907216,427.6282216494845 515.4653902798233,416.0476804123711 573,392 C 630.5346097201767,367.9523195876289 667.0714285714286,331.43750000000006 725,297 C 782.9285714285714,262.56249999999994 862.2488954344626,230.20231958762886 923,207 C 983.7511045655374,183.79768041237114 1025.9329896907216,169.75322164948454 1080,151 C 1134.0670103092784,132.24677835051546 1200.0191458026509,108.78479381443299 1262,82 C 1323.9808541973491,55.21520618556701 1381.9904270986744,25.107603092783506 1440,-5 L 1440,400 L 0,400 Z" stroke="none" stroke-width="0" fill="#ef0e90" fill-opacity="0.53" class="transition-all duration-300 ease-in-out delay-150 path-2"></path><path d="M 0,400 L 0,600 C 56.239690721649495,602.1770066273932 112.47938144329899,604.3540132547864 172,585 C 231.520618556701,565.6459867452136 294.3221649484535,524.7609536082475 363,500 C 431.6778350515465,475.23904639175254 506.2319587628866,466.6021723122239 565,443 C 623.7680412371134,419.3978276877761 666.7499999999999,380.83035714285717 723,351 C 779.2500000000001,321.16964285714283 848.7680412371136,300.07639911634755 908,278 C 967.2319587628864,255.92360088365245 1016.1778350515463,232.86404639175257 1071,216 C 1125.8221649484537,199.13595360824743 1186.520618556701,188.46741531664213 1249,166 C 1311.479381443299,143.53258468335787 1375.7396907216494,109.26629234167893 1440,75 L 1440,400 L 0,400 Z" stroke="none" stroke-width="0" fill="#ef0e90" fill-opacity="1" class="transition-all duration-300 ease-in-out delay-150 path-3"></path></svg>